<svg fill="#fff" xmlns="http://www.w3.org/2000/svg" viewBox="0 0 64 64" width="24" height="24"><path d="M32 10c-12.15 0-22 9.85-22 22s9.85 22 22 22 22-9.85 22-22-9.85-22-22-22zm0 4c9.941 0 18 8.059 18 18s-8.059 18-18 18-18-8.059-18-18 8.059-18 18-18zm9.041 9.338c-.508-.059-1.146.08-1.86.338-1.302.47-17.957 7.542-18.92 7.951-.91.388-1.774.81-1.775 1.422 0 .43.255.673.96.924.731.262 2.577.82 3.667 1.12 1.05.29 2.244.038 2.914-.378.71-.441 8.902-5.923 9.489-6.403.587-.48 1.056.137.576.618-.48.48-6.104 5.935-6.846 6.691-.9.918-.26 1.87.344 2.25.689.435 5.65 3.761 6.396 4.295.747.534 1.504.775 2.198.775s1.059-.914 1.404-1.974c.405-1.241 2.302-13.615 2.535-16.053.071-.739-.162-1.23-.62-1.45a1.45 1.45 0 0 0-.462-.126z"/></svg>